<?xml version="1.0" encoding="UTF-8"?>
<!DOCTYPE svg PUBLIC "-//W3C//DTD SVG 1.1//EN" "http://www.w3.org/Graphics/SVG/1.1/DTD/svg11.dtd">
<svg xmlns="http://www.w3.org/2000/svg" version="1.1" width="119px" height="120px" style="shape-rendering:geometricPrecision; text-rendering:geometricPrecision; image-rendering:optimizeQuality; fill-rule:evenodd; clip-rule:evenodd" xmlns:xlink="http://www.w3.org/1999/xlink">
<g><path style="opacity:0.947" fill="#d54016" d="M 55.5,-0.5 C 57.8333,-0.5 60.1667,-0.5 62.5,-0.5C 86.3937,7.29652 93.5603,22.9632 84,46.5C 77.5406,57.7951 68.0406,65.1284 55.5,68.5C 48.7742,67.2779 45.6076,63.2779 46,56.5C 49.0646,49.7725 54.2313,45.6058 61.5,44C 72.8363,34.9841 75.6696,23.8174 70,10.5C 66.0847,5.47654 61.2513,1.80987 55.5,-0.5 Z"/></g>
<g><path style="opacity:0.956" fill="#f5c51d" d="M 82.5,6.5 C 82.7352,5.90326 83.2352,5.56993 84,5.5C 97.0321,11.5364 105.365,21.5364 109,35.5C 112.604,66.4693 100.104,87.9693 71.5,100C 66.4107,100.826 61.4107,100.492 56.5,99C 51.355,94.4022 50.1883,88.9022 53,82.5C 59.225,76.1353 66.725,71.9686 75.5,70C 92.8585,59.0966 99.0251,43.5966 94,23.5C 92.603,15.9973 88.7697,10.3306 82.5,6.5 Z"/></g>
<g><path style="opacity:0.892" fill="#20a8db" d="M -0.5,69.5 C -0.5,61.5 -0.5,53.5 -0.5,45.5C 2.94022,32.2011 9.94022,21.0344 20.5,12C 26.3682,11.3701 28.3682,13.8701 26.5,19.5C 7.55872,35.3888 2.05872,55.0555 10,78.5C 17.8333,95.6667 30.3333,108.167 47.5,116C 22.2114,110.213 6.21144,94.7131 -0.5,69.5 Z"/></g>
<g><path style="opacity:0.911" fill="#1fa9db" d="M 114.5,47.5 C 115.117,47.6107 115.617,47.944 116,48.5C 119.263,62.5124 117.596,75.8458 111,88.5C 107.832,95.1676 102.665,97.6676 95.5,96C 93.1276,93.1561 93.2942,90.3228 96,87.5C 108.345,77.1372 114.512,63.8039 114.5,47.5 Z"/></g>
</svg>
